<svg t="1520133175591" class="icon" style="width: 1em; height: 1em;vertical-align: middle;fill: currentColor;overflow: hidden;" viewBox="0 0 1024 1024" version="1.1" xmlns="http://www.w3.org/2000/svg" p-id="900"><path d="M510.855944 79.817883c-238.050698 0-431.016571 192.957687-431.016571 431.016571 0 238.050698 192.965873 431.016571 431.016571 431.016571 238.050698 0 431.016571-192.965873 431.016571-431.016571C941.872514 272.77557 748.905618 79.817883 510.855944 79.817883zM510.855944 895.674333c-212.531488 0-384.840902-172.317601-384.840902-384.839879 0-212.538651 172.309414-384.848065 384.840902-384.848065 212.530464 0 384.839879 172.309414 384.839879 384.848065C895.695822 723.357755 723.386408 895.674333 510.855944 895.674333z" p-id="901"></path><path d="M590.111009 511.131213c43.834344-26.004257 73.309656-73.662697 73.309656-128.33283 0-82.451874-66.831105-149.276838-149.275815-149.276838-82.452897 0-149.285025 66.824965-149.285025 149.276838 0 54.748928 29.557176 102.468766 73.497944 128.444371-88.298022 26.186406-157.532873 96.691179-181.579545 185.884594-1.730411 6.407943-0.367367 10.429537 3.65525 15.69854 4.036943 5.253654 10.304693 5.535063 16.929578 5.535063l6.134721 0 461.291085 0 6.118348 0c6.633071 0 12.892635-0.281409 16.929578-5.535063 4.03899-5.270027 5.385661-10.709923 3.671623-17.10968C747.474013 606.587262 678.313863 536.986067 590.111009 511.131213zM396.850423 382.798383c0-64.789609 52.505841-117.287263 117.29545-117.287263 64.788585 0 117.28624 52.497655 117.28624 117.287263 0 64.774259-52.497655 117.2801-117.28624 117.2801C449.355241 500.078483 396.850423 447.572642 396.850423 382.798383zM729.792305 684.4844c-1.963725 2.962471-5.307889 1.949398-8.861832 1.949398L307.343877 686.433798c-3.554966 0-6.883781 1.014096-8.854669-1.949398-1.979074-2.938935-2.362814-5.307889-0.997724-8.596795 35.145451-85.165682 118.766964-143.82057 216.654388-143.82057 97.861842 0 181.507914 60.042491 216.653365 145.216359C732.146932 680.564114 731.781612 681.545464 729.792305 684.4844z" p-id="902"></path></svg>