<svg t="1519614087678" class="icon" style="width: 1em; height: 1em;vertical-align: middle;fill: currentColor;overflow: hidden;" viewBox="0 0 1024 1024" version="1.1" xmlns="http://www.w3.org/2000/svg" p-id="1941" data-spm-anchor-id="a313x.7781069.0.i0"><path d="M511.998 64C264.574 64 64 264.574 64 511.998S264.574 960 511.998 960 960 759.422 960 511.998 759.422 64 511.998 64z m353.851 597.438c-82.215 194.648-306.657 285.794-501.306 203.579S78.749 558.36 160.964 363.711 467.621 77.917 662.27 160.132c168.009 70.963 262.57 250.652 225.926 429.313a383.995 383.995 0 0 1-22.347 71.993z" fill="" p-id="1942"></path><path d="M543.311 498.639V256.121c0-17.657-14.314-31.97-31.97-31.97s-31.97 14.314-31.97 31.97v269.005l201.481 201.481c12.485 12.485 32.728 12.485 45.213 0s12.485-32.728 0-45.213L543.311 498.639z" fill="" p-id="1943" data-spm-anchor-id="a313x.7781069.0.i1"></path></svg>