<svg t="1518152920270" class="icon" style="width: 1.0009765625em; height: 1em;vertical-align: middle;fill: currentColor;overflow: hidden;" viewBox="0 0 1025 1024" version="1.1" xmlns="http://www.w3.org/2000/svg" p-id="1248" data-spm-anchor-id="a313x.7781069.0.i0"><path d="M4.138667 370.944c0.213333 1.514667 0.362667 2.986667 0.896 4.394667 0.469333 1.322667 1.237333 2.389333 1.941333 3.584 0.704 1.152 1.322667 2.304 2.24 3.328 1.024 1.152 2.282667 1.962667 3.562667 2.858667 0.810667 0.554667 1.386667 1.365333 2.304 1.834667 0.32 0.170667 0.661333 0.234667 0.981333 0.384 0.448 0.213333 0.917333 0.341333 1.386667 0.512 2.432 0.917333 4.906667 1.493333 7.402667 1.493333 0 0 0 0 0 0l0 0L1002.666667 389.333333c11.797333 0 21.333333-9.557333 21.333333-21.333333 0-11.797333-9.536-21.333333-21.333333-21.333333L59.925333 346.666667l99.690667-192.874667c5.418667-10.453333 1.322667-23.338667-9.152-28.757333C140.010667 119.616 127.125333 123.733333 121.728 134.208l-115.776 224c-0.128 0.256-0.106667 0.490667-0.213333 0.746667-0.597333 1.301333-0.832 2.709333-1.173333 4.096-0.341333 1.386667-0.789333 2.752-0.832 4.138667 0 0.277333-0.149333 0.490667-0.149333 0.789333C3.562667 369.045333 4.010667 369.941333 4.138667 370.944z" p-id="1249"></path><path d="M1023.424 653.077333c-0.234667-1.493333-0.384-2.986667-0.896-4.394667-0.469333-1.322667-1.237333-2.410667-1.962667-3.605333-0.704-1.152-1.322667-2.304-2.24-3.328-1.024-1.130667-2.261333-1.941333-3.52-2.816-0.832-0.576-1.408-1.386667-2.325333-1.877333-0.256-0.128-0.512-0.106667-0.746667-0.213333-1.322667-0.618667-2.794667-0.853333-4.245333-1.194667-1.322667-0.32-2.602667-0.746667-3.946667-0.810667-0.32 0-0.554667-0.170667-0.853333-0.170667L24.874667 634.666667c-11.776 0-21.333333 9.536-21.333333 21.333333s9.557333 21.333333 21.333333 21.333333l942.741333 0-99.712 192.874667c-5.397333 10.453333-1.322667 23.338667 9.173333 28.757333 3.114667 1.6 6.485333 2.368 9.770667 2.368 7.722667 0 15.189333-4.202667 18.986667-11.541333l115.797333-224c0.128-0.256 0.106667-0.512 0.213333-0.768 0.597333-1.28 0.832-2.666667 1.173333-4.053333s0.789333-2.773333 0.832-4.16C1023.850667 656.512 1024 656.298667 1024 656.021333 1024 654.976 1023.552 654.08 1023.424 653.077333z" p-id="1250"></path></svg>