<svg class="icon" style="width: 1em; height: 1em;vertical-align: middle;fill: currentColor;overflow: hidden;" viewBox="0 0 1024 1024" version="1.1" xmlns="http://www.w3.org/2000/svg" p-id="534"><path d="M128 42.666667c-47.36 0-85.333333 37.973333-85.333333 85.333333v469.333333c0 47.36 37.973333 85.333333 85.333333 85.333334h85.333333v-85.333334H128V128h469.333333v85.333333h85.333334V128c0-47.36-37.973333-85.333333-85.333334-85.333333H128m256 256c-47.36 0-85.333333 37.973333-85.333333 85.333333v85.333333h85.333333V384h85.333333V298.666667H384m170.666667 0v85.333333h42.666666v42.666667h85.333334V298.666667h-128m213.333333 0v85.333333h85.333333v469.333333H384v-85.333333H298.666667v85.333333c0 47.36 37.973333 85.333333 85.333333 85.333334h469.333333c47.36 0 85.333333-37.973333 85.333334-85.333334V384c0-47.36-37.973333-85.333333-85.333334-85.333333h-85.333333m-170.666667 213.333333v85.333333h-85.333333v85.333334h85.333333c47.36 0 85.333333-37.973333 85.333334-85.333334v-85.333333h-85.333334m-298.666666 42.666667v128h128v-85.333334H384v-42.666666H298.666667z" fill="" p-id="535"></path></svg>